<svg width="165" height="47" viewBox="0 0 165 47" fill="none" xmlns="http://www.w3.org/2000/svg">
<path d="M60.7417 40.3469V33.6606H64.4781V34.086H61.2128V36.5967H62.4613C62.9918 36.5967 63.4278 36.6623 63.7692 36.7934C64.1107 36.9214 64.3638 37.1196 64.5284 37.3879C64.6961 37.6562 64.78 38.0007 64.78 38.4215C64.78 39.0496 64.597 39.5282 64.2312 39.8575C63.8683 40.1837 63.315 40.3469 62.571 40.3469H60.7417ZM61.2128 39.9307H62.5024C63.1244 39.9307 63.5772 39.8102 63.8607 39.5694C64.1473 39.3255 64.2906 38.9428 64.2906 38.4215C64.2906 38.0587 64.219 37.7751 64.0757 37.5708C63.9324 37.3666 63.7189 37.2233 63.4354 37.1409C63.1549 37.0586 62.8073 37.0175 62.3927 37.0175H61.2128V39.9307Z" fill="black"/>
<path d="M67.9401 35.2887C68.4859 35.2887 68.8944 35.4259 69.1658 35.7003C69.4371 35.9747 69.5728 36.4123 69.5728 37.0129V40.3469H69.2161L69.1338 39.4779H69.1063C68.9996 39.6639 68.87 39.8301 68.7176 39.9764C68.5652 40.1197 68.3776 40.2325 68.1551 40.3148C67.9356 40.3972 67.6673 40.4383 67.3502 40.4383C67.03 40.4383 66.7556 40.385 66.527 40.2783C66.3014 40.1715 66.126 40.016 66.001 39.8118C65.8791 39.6075 65.8181 39.359 65.8181 39.0663C65.8181 38.5724 66.0224 38.1974 66.4309 37.9413C66.8395 37.6821 67.4264 37.5358 68.1917 37.5022L69.1155 37.4565V37.0952C69.1155 36.586 69.0149 36.2232 68.8136 36.0068C68.6124 35.7903 68.3151 35.6821 67.9218 35.6821C67.6657 35.6821 67.4188 35.7156 67.181 35.7827C66.9462 35.8467 66.7069 35.9397 66.4629 36.0616L66.3166 35.6775C66.5544 35.5647 66.809 35.4717 67.0803 35.3985C67.3547 35.3253 67.6413 35.2887 67.9401 35.2887ZM69.1109 37.8178L68.242 37.8544C67.6109 37.8849 67.1307 37.9977 66.8014 38.1928C66.4721 38.3879 66.3074 38.6806 66.3074 39.0709C66.3074 39.3849 66.405 39.6258 66.6001 39.7935C66.7983 39.9612 67.0727 40.045 67.4233 40.045C67.9691 40.045 68.3853 39.8895 68.6719 39.5785C68.9615 39.2675 69.1079 38.8438 69.1109 38.3071V37.8178Z" fill="black"/>
<path d="M73.3733 35.2796C74.0135 35.2796 74.509 35.4945 74.8596 35.9244C75.2133 36.3543 75.3901 36.9885 75.3901 37.8269C75.3901 38.3879 75.3063 38.8636 75.1386 39.2538C74.9709 39.641 74.7315 39.9353 74.4205 40.1365C74.1126 40.3377 73.7422 40.4383 73.3092 40.4383C73.0104 40.4383 72.7498 40.3941 72.5272 40.3057C72.3077 40.2142 72.1247 40.0923 71.9784 39.9398C71.832 39.7843 71.7192 39.6136 71.64 39.4276H71.6079C71.6171 39.6014 71.6247 39.7828 71.6308 39.9718C71.6369 40.1609 71.64 40.3392 71.64 40.5069V42.5466H71.1735V35.3756H71.5576L71.6125 36.3681H71.64C71.7223 36.179 71.8381 36.0007 71.9875 35.833C72.1369 35.6653 72.326 35.5311 72.5546 35.4305C72.7833 35.3299 73.0562 35.2796 73.3733 35.2796ZM73.3138 35.6866C72.9388 35.6866 72.6263 35.7689 72.3763 35.9336C72.1293 36.0952 71.9448 36.333 71.8229 36.647C71.704 36.958 71.643 37.3391 71.64 37.7904V37.8681C71.64 38.3529 71.6994 38.7569 71.8183 39.08C71.9403 39.4002 72.1217 39.6395 72.3625 39.7981C72.6065 39.9566 72.9083 40.0359 73.2681 40.0359C73.6217 40.0359 73.9205 39.949 74.1644 39.7752C74.4084 39.6014 74.5943 39.3499 74.7224 39.0206C74.8504 38.6913 74.9145 38.2919 74.9145 37.8224C74.9145 37.1242 74.7803 36.5937 74.512 36.2309C74.2468 35.868 73.8474 35.6866 73.3138 35.6866Z" fill="black"/>
<path d="M77.1371 35.3756V37.0449C77.1371 37.4626 77.2408 37.7675 77.4481 37.9596C77.6554 38.1486 77.9588 38.2431 78.3582 38.2431C78.6997 38.2431 79.0061 38.1898 79.2774 38.0831C79.5518 37.9763 79.814 37.833 80.064 37.6532V35.3756H80.526V40.3469H80.064V38.0556C79.7927 38.2385 79.5198 38.3818 79.2454 38.4855C78.9741 38.5892 78.6539 38.641 78.285 38.641C77.7576 38.641 77.3566 38.5068 77.0822 38.2385C76.8109 37.9672 76.6752 37.5876 76.6752 37.0998V35.3756H77.1371Z" fill="black"/>
<path d="M83.9194 35.2887C84.4651 35.2887 84.8737 35.4259 85.145 35.7003C85.4164 35.9747 85.552 36.4123 85.552 37.0129V40.3469H85.1953L85.113 39.4779H85.0856C84.9789 39.6639 84.8493 39.8301 84.6968 39.9764C84.5444 40.1197 84.3569 40.2325 84.1343 40.3148C83.9148 40.3972 83.6465 40.4383 83.3294 40.4383C83.0093 40.4383 82.7349 40.385 82.5062 40.2783C82.2806 40.1715 82.1053 40.016 81.9803 39.8118C81.8583 39.6075 81.7973 39.359 81.7973 39.0663C81.7973 38.5724 82.0016 38.1974 82.4102 37.9413C82.8187 37.6821 83.4056 37.5358 84.1709 37.5022L85.0947 37.4565V37.0952C85.0947 36.586 84.9941 36.2232 84.7929 36.0068C84.5916 35.7903 84.2944 35.6821 83.9011 35.6821C83.645 35.6821 83.398 35.7156 83.1602 35.7827C82.9254 35.8467 82.6861 35.9397 82.4422 36.0616L82.2958 35.6775C82.5336 35.5647 82.7882 35.4717 83.0596 35.3985C83.334 35.3253 83.6206 35.2887 83.9194 35.2887ZM85.0901 37.8178L84.2212 37.8544C83.5901 37.8849 83.1099 37.9977 82.7806 38.1928C82.4513 38.3879 82.2867 38.6806 82.2867 39.0709C82.2867 39.3849 82.3843 39.6258 82.5794 39.7935C82.7776 39.9612 83.052 40.045 83.4026 40.045C83.9483 40.045 84.3645 39.8895 84.6511 39.5785C84.9407 39.2675 85.0871 38.8438 85.0901 38.3071V37.8178Z" fill="black"/>
<path d="M92.7505 35.7827H91.0675V40.3469H90.6147V35.7827H88.9409V35.3756H92.7505V35.7827Z" fill="black"/>
<path d="M92.9426 35.3756H93.4319L94.6393 38.5312C94.7124 38.7172 94.7765 38.8895 94.8313 39.048C94.8893 39.2035 94.9396 39.3468 94.9823 39.4779C95.025 39.606 95.06 39.7234 95.0875 39.8301H95.1149C95.1606 39.6898 95.2216 39.5099 95.2978 39.2904C95.3741 39.0678 95.4609 38.8209 95.5585 38.5495L96.7522 35.3756H97.2461L94.9777 41.2798C94.8679 41.5664 94.7475 41.8088 94.6164 42.007C94.4853 42.2082 94.3313 42.3591 94.1545 42.4597C93.9777 42.5634 93.7642 42.6152 93.5142 42.6152C93.4014 42.6152 93.2993 42.6061 93.2078 42.5878C93.1163 42.5725 93.0279 42.5512 92.9426 42.5238V42.1259C93.0218 42.1503 93.1026 42.1701 93.1849 42.1853C93.2703 42.2036 93.3633 42.2128 93.4639 42.2128C93.6377 42.2128 93.7871 42.1762 93.9121 42.103C94.0402 42.0329 94.1545 41.9231 94.2551 41.7737C94.3557 41.6243 94.4502 41.4338 94.5387 41.2021L94.8771 40.3194L92.9426 35.3756Z" fill="black"/>
<path d="M100.264 35.2796C100.905 35.2796 101.4 35.4945 101.751 35.9244C102.104 36.3543 102.281 36.9885 102.281 37.8269C102.281 38.3879 102.197 38.8636 102.03 39.2538C101.862 39.641 101.623 39.9353 101.312 40.1365C101.004 40.3377 100.633 40.4383 100.2 40.4383C99.9017 40.4383 99.641 40.3941 99.4184 40.3057C99.1989 40.2142 99.016 40.0923 98.8696 39.9398C98.7233 39.7843 98.6104 39.6136 98.5312 39.4276H98.4992C98.5083 39.6014 98.5159 39.7828 98.522 39.9718C98.5281 40.1609 98.5312 40.3392 98.5312 40.5069V42.5466H98.0647V35.3756H98.4489L98.5037 36.3681H98.5312C98.6135 36.179 98.7294 36.0007 98.8788 35.833C99.0281 35.6653 99.2172 35.5311 99.4458 35.4305C99.6745 35.3299 99.9474 35.2796 100.264 35.2796ZM100.205 35.6866C99.83 35.6866 99.5175 35.7689 99.2675 35.9336C99.0205 36.0952 98.8361 36.333 98.7141 36.647C98.5952 36.958 98.5342 37.3391 98.5312 37.7904V37.8681C98.5312 38.3529 98.5906 38.7569 98.7095 39.08C98.8315 39.4002 99.0129 39.6395 99.2538 39.7981C99.4977 39.9566 99.7995 40.0359 100.159 40.0359C100.513 40.0359 100.812 39.949 101.056 39.7752C101.3 39.6014 101.486 39.3499 101.614 39.0206C101.742 38.6913 101.806 38.2919 101.806 37.8224C101.806 37.1242 101.672 36.5937 101.403 36.2309C101.138 35.868 100.739 35.6866 100.205 35.6866Z" fill="black"/>
<path d="M107.042 35.3756V39.9398H107.71V42.0298H107.257V40.3469H103.452V42.0298H103.004V39.9398H103.338C103.618 39.5526 103.853 39.1212 104.042 38.6456C104.231 38.1699 104.374 37.6577 104.472 37.1089C104.573 36.5571 104.626 35.9793 104.632 35.3756H107.042ZM106.589 35.7644H105.053C105.028 36.3101 104.967 36.833 104.87 37.333C104.772 37.83 104.638 38.298 104.467 38.737C104.297 39.173 104.089 39.574 103.845 39.9398H106.589V35.7644Z" fill="black"/>
<path d="M110.49 35.2887C111.036 35.2887 111.445 35.4259 111.716 35.7003C111.987 35.9747 112.123 36.4123 112.123 37.0129V40.3469H111.766L111.684 39.4779H111.657C111.55 39.6639 111.42 39.8301 111.268 39.9764C111.115 40.1197 110.928 40.2325 110.705 40.3148C110.486 40.3972 110.218 40.4383 109.9 40.4383C109.58 40.4383 109.306 40.385 109.077 40.2783C108.852 40.1715 108.676 40.016 108.551 39.8118C108.429 39.6075 108.368 39.359 108.368 39.0663C108.368 38.5724 108.573 38.1974 108.981 37.9413C109.39 37.6821 109.977 37.5358 110.742 37.5022L111.666 37.4565V37.0952C111.666 36.586 111.565 36.2232 111.364 36.0068C111.163 35.7903 110.865 35.6821 110.472 35.6821C110.216 35.6821 109.969 35.7156 109.731 35.7827C109.497 35.8467 109.257 35.9397 109.013 36.0616L108.867 35.6775C109.105 35.5647 109.359 35.4717 109.631 35.3985C109.905 35.3253 110.192 35.2887 110.49 35.2887ZM111.661 37.8178L110.792 37.8544C110.161 37.8849 109.681 37.9977 109.352 38.1928C109.022 38.3879 108.858 38.6806 108.858 39.0709C108.858 39.3849 108.955 39.6258 109.15 39.7935C109.349 39.9612 109.623 40.045 109.974 40.045C110.519 40.045 110.936 39.8895 111.222 39.5785C111.512 39.2675 111.658 38.8438 111.661 38.3071V37.8178Z" fill="black"/>
<path d="M116.651 35.3756V35.7827H114.19V40.3469H113.724V35.3756H116.651Z" fill="black"/>
<path d="M118.123 35.3756V38.9474C118.123 39.0175 118.122 39.0892 118.119 39.1624C118.119 39.2355 118.117 39.3102 118.114 39.3865C118.114 39.4627 118.113 39.5374 118.11 39.6105C118.107 39.6837 118.102 39.7554 118.096 39.8255L121.064 35.3756H121.631V40.3469H121.192V36.7431C121.192 36.6516 121.192 36.5571 121.192 36.4595C121.195 36.3589 121.198 36.2598 121.201 36.1623C121.204 36.0616 121.207 35.9671 121.21 35.8787L118.229 40.3469H117.675V35.3756H118.123Z" fill="black"/>
<path d="M128.441 35.3756H128.976L126.726 37.7904L129.113 40.3469H128.541L126.2 37.8269V40.3469H125.733V35.3756H126.2V37.7904L128.441 35.3756Z" fill="black"/>
<path d="M130.481 35.3756V38.9474C130.481 39.0175 130.479 39.0892 130.476 39.1624C130.476 39.2355 130.474 39.3102 130.471 39.3865C130.471 39.4627 130.47 39.5374 130.467 39.6105C130.464 39.6837 130.459 39.7554 130.453 39.8255L133.421 35.3756H133.988V40.3469H133.549V36.7431C133.549 36.6516 133.549 36.5571 133.549 36.4595C133.552 36.3589 133.555 36.2598 133.558 36.1623C133.561 36.0616 133.564 35.9671 133.568 35.8787L130.586 40.3469H130.032V35.3756H130.481Z" fill="black"/>
<path d="M138.822 35.7827H137.139V40.3469H136.687V35.7827H135.013V35.3756H138.822V35.7827Z" fill="black"/>
<path d="M143.958 37.8544C143.958 38.2385 143.911 38.5892 143.816 38.9063C143.722 39.2203 143.582 39.4916 143.396 39.7203C143.21 39.949 142.978 40.1258 142.7 40.2508C142.426 40.3758 142.106 40.4383 141.74 40.4383C141.392 40.4383 141.083 40.3773 140.812 40.2554C140.54 40.1304 140.31 39.9535 140.121 39.7249C139.935 39.4962 139.793 39.2249 139.696 38.9108C139.598 38.5937 139.549 38.2416 139.549 37.8544C139.549 37.3208 139.638 36.862 139.815 36.4778C139.995 36.0906 140.251 35.7949 140.583 35.5906C140.918 35.3833 141.319 35.2796 141.786 35.2796C142.268 35.2796 142.668 35.3894 142.989 35.6089C143.312 35.8253 143.554 36.1272 143.716 36.5144C143.877 36.9016 143.958 37.3483 143.958 37.8544ZM140.025 37.8544C140.025 38.2904 140.088 38.6715 140.213 38.9977C140.338 39.324 140.527 39.5785 140.78 39.7615C141.036 39.9444 141.359 40.0359 141.749 40.0359C142.149 40.0359 142.476 39.9444 142.732 39.7615C142.989 39.5785 143.178 39.3224 143.3 38.9931C143.422 38.6639 143.483 38.2843 143.483 37.8544C143.483 37.4367 143.425 37.0647 143.309 36.7385C143.193 36.4123 143.01 36.1562 142.76 35.9702C142.51 35.7811 142.184 35.6866 141.781 35.6866C141.205 35.6866 140.767 35.8787 140.469 36.2629C140.173 36.647 140.025 37.1775 140.025 37.8544Z" fill="black"/>
<path d="M145.06 37.3605C145.06 36.7354 145.109 36.1973 145.207 35.7461C145.307 35.2948 145.455 34.9229 145.65 34.6302C145.848 34.3344 146.094 34.1103 146.387 33.9579C146.713 33.7475 147.105 33.5859 147.562 33.4731C148.022 33.3603 148.556 33.2689 149.163 33.1987L149.236 33.6103C148.919 33.6469 148.624 33.6881 148.353 33.7338C148.085 33.7795 147.839 33.8314 147.617 33.8893C147.394 33.9442 147.195 34.0067 147.018 34.0768C146.844 34.1469 146.693 34.2262 146.565 34.3146C146.364 34.4366 146.191 34.6088 146.048 34.8314C145.905 35.0509 145.791 35.3223 145.705 35.6455C145.62 35.9686 145.566 36.3467 145.545 36.7797H145.582C145.694 36.5754 145.841 36.394 146.021 36.2354C146.204 36.0769 146.414 35.9519 146.652 35.8604C146.89 35.7659 147.15 35.7186 147.434 35.7186C147.852 35.7186 148.202 35.8071 148.486 35.9839C148.772 36.1577 148.989 36.4138 149.135 36.7522C149.281 37.0876 149.355 37.4961 149.355 37.9779C149.355 38.4718 149.275 38.9047 149.117 39.2767C148.958 39.6456 148.72 39.9322 148.403 40.1365C148.089 40.3377 147.696 40.4383 147.223 40.4383C146.839 40.4383 146.51 40.3606 146.236 40.2051C145.961 40.0465 145.737 39.8285 145.563 39.5511C145.393 39.2706 145.266 38.9444 145.184 38.5724C145.101 38.1974 145.06 37.7934 145.06 37.3605ZM147.26 40.0359C147.626 40.0359 147.928 39.9551 148.166 39.7935C148.403 39.6288 148.58 39.3956 148.696 39.0938C148.812 38.7889 148.87 38.4276 148.87 38.0099C148.87 37.391 148.743 36.923 148.49 36.6059C148.237 36.2857 147.867 36.1257 147.379 36.1257C147.095 36.1257 146.838 36.1775 146.606 36.2812C146.374 36.3848 146.169 36.5281 145.989 36.7111C145.812 36.8909 145.659 37.0983 145.531 37.333C145.531 37.6715 145.557 38.0023 145.609 38.3254C145.661 38.6456 145.751 38.9352 145.879 39.1944C146.007 39.4535 146.182 39.6593 146.405 39.8118C146.63 39.9612 146.916 40.0359 147.26 40.0359Z" fill="black"/>
<path d="M154.157 40.3469H153.695V35.7781H151.957C151.899 36.5617 151.83 37.2446 151.751 37.8269C151.672 38.4062 151.57 38.8864 151.445 39.2675C151.32 39.6456 151.164 39.9276 150.978 40.1136C150.792 40.2996 150.562 40.3926 150.288 40.3926C150.208 40.3926 150.138 40.388 150.077 40.3789C150.016 40.3728 149.967 40.3636 149.931 40.3514V39.9764C149.967 39.9856 150.009 39.9932 150.054 39.9993C150.1 40.0023 150.157 40.0039 150.224 40.0039C150.379 40.0039 150.518 39.9459 150.64 39.8301C150.762 39.7112 150.87 39.5313 150.964 39.2904C151.062 39.0496 151.146 38.7462 151.216 38.3803C151.286 38.0114 151.347 37.5769 151.399 37.0769C151.454 36.5769 151.503 36.0098 151.545 35.3756H154.157V40.3469Z" fill="black"/>
<path d="M157.55 35.2887C158.096 35.2887 158.504 35.4259 158.776 35.7003C159.047 35.9747 159.183 36.4123 159.183 37.0129V40.3469H158.826L158.744 39.4779H158.716C158.61 39.6639 158.48 39.8301 158.328 39.9764C158.175 40.1197 157.988 40.2325 157.765 40.3148C157.546 40.3972 157.277 40.4383 156.96 40.4383C156.64 40.4383 156.366 40.385 156.137 40.2783C155.911 40.1715 155.736 40.016 155.611 39.8118C155.489 39.6075 155.428 39.359 155.428 39.0663C155.428 38.5724 155.632 38.1974 156.041 37.9413C156.449 37.6821 157.036 37.5358 157.802 37.5022L158.725 37.4565V37.0952C158.725 36.586 158.625 36.2232 158.424 36.0068C158.222 35.7903 157.925 35.6821 157.532 35.6821C157.276 35.6821 157.029 35.7156 156.791 35.7827C156.556 35.8467 156.317 35.9397 156.073 36.0616L155.927 35.6775C156.164 35.5647 156.419 35.4717 156.69 35.3985C156.965 35.3253 157.251 35.2887 157.55 35.2887ZM158.721 37.8178L157.852 37.8544C157.221 37.8849 156.741 37.9977 156.411 38.1928C156.082 38.3879 155.917 38.6806 155.917 39.0709C155.917 39.3849 156.015 39.6258 156.21 39.7935C156.408 39.9612 156.683 40.045 157.033 40.045C157.579 40.045 157.995 39.8895 158.282 39.5785C158.571 39.2675 158.718 38.8438 158.721 38.3071V37.8178Z" fill="black"/>
<path d="M162.983 35.2796C163.623 35.2796 164.119 35.4945 164.47 35.9244C164.823 36.3543 165 36.9885 165 37.8269C165 38.3879 164.916 38.8636 164.749 39.2538C164.581 39.641 164.341 39.9353 164.031 40.1365C163.723 40.3377 163.352 40.4383 162.919 40.4383C162.62 40.4383 162.36 40.3941 162.137 40.3057C161.918 40.2142 161.735 40.0923 161.588 39.9398C161.442 39.7843 161.329 39.6136 161.25 39.4276H161.218C161.227 39.6014 161.235 39.7828 161.241 39.9718C161.247 40.1609 161.25 40.3392 161.25 40.5069V42.5466H160.783V35.3756H161.168L161.222 36.3681H161.25C161.332 36.179 161.448 36.0007 161.597 35.833C161.747 35.6653 161.936 35.5311 162.165 35.4305C162.393 35.3299 162.666 35.2796 162.983 35.2796ZM162.924 35.6866C162.549 35.6866 162.236 35.7689 161.986 35.9336C161.739 36.0952 161.555 36.333 161.433 36.647C161.314 36.958 161.253 37.3391 161.25 37.7904V37.8681C161.25 38.3529 161.309 38.7569 161.428 39.08C161.55 39.4002 161.732 39.6395 161.973 39.7981C162.216 39.9566 162.518 40.0359 162.878 40.0359C163.232 40.0359 163.53 39.949 163.774 39.7752C164.018 39.6014 164.204 39.3499 164.332 39.0206C164.46 38.6913 164.524 38.2919 164.524 37.8224C164.524 37.1242 164.39 36.5937 164.122 36.2309C163.857 35.868 163.457 35.6866 162.924 35.6866Z" fill="black"/>
<path d="M60.52 26.1905V7.67485H64.4461V22.9484H71.9562V26.1905H60.52Z" fill="black"/>
<path d="M81.0788 12.0315V26.1905H77.216V12.0315H81.0788ZM79.1537 6.48438C79.7279 6.48438 80.2218 6.61946 80.6355 6.88964C81.0492 7.15138 81.2561 7.6453 81.2561 8.3714C81.2561 9.08907 81.0492 9.58721 80.6355 9.86583C80.2218 10.136 79.7279 10.2711 79.1537 10.2711C78.5712 10.2711 78.073 10.136 77.6593 9.86583C77.254 9.58721 77.0514 9.08907 77.0514 8.3714C77.0514 7.6453 77.254 7.15138 77.6593 6.88964C78.073 6.61946 78.5712 6.48438 79.1537 6.48438Z" fill="black"/>
<path d="M91.3412 6.48438V11.069C91.3412 11.6009 91.3243 12.1286 91.2905 12.652C91.2652 13.1755 91.2314 13.5808 91.1892 13.8679H91.3412C91.7127 13.2853 92.2192 12.7914 92.8609 12.3861C93.5026 11.9724 94.3342 11.7655 95.3558 11.7655C96.9431 11.7655 98.2307 12.3861 99.2186 13.6272C100.206 14.8684 100.7 16.6878 100.7 19.0857C100.7 20.6983 100.472 22.0534 100.016 23.151C99.5605 24.2402 98.923 25.0634 98.1041 25.6206C97.2851 26.1694 96.3352 26.4438 95.2545 26.4438C94.216 26.4438 93.397 26.2581 92.7976 25.8866C92.1981 25.5151 91.7127 25.0972 91.3412 24.6328H91.0752L90.4293 26.1905H87.4784V6.48438H91.3412ZM94.1147 14.8557C93.4393 14.8557 92.9031 14.995 92.5063 15.2736C92.1095 15.5522 91.8182 15.9702 91.6324 16.5274C91.4551 17.0847 91.358 17.7897 91.3412 18.6424V19.0603C91.3412 20.4366 91.5438 21.492 91.9491 22.2265C92.3543 22.9526 93.0931 23.3157 94.1654 23.3157C94.959 23.3157 95.588 22.9484 96.0524 22.2138C96.5252 21.4793 96.7616 20.4197 96.7616 19.035C96.7616 17.6504 96.5252 16.6076 96.0524 15.9069C95.5796 15.2061 94.9337 14.8557 94.1147 14.8557Z" fill="black"/>
<path d="M112.065 11.7655C113.373 11.7655 114.5 12.0188 115.446 12.5254C116.392 13.0235 117.122 13.7496 117.637 14.7037C118.152 15.6578 118.41 16.8229 118.41 18.1992V20.0735H109.278C109.321 21.1627 109.646 22.0196 110.253 22.6444C110.87 23.2608 111.723 23.569 112.812 23.569C113.715 23.569 114.543 23.4761 115.294 23.2903C116.045 23.1046 116.818 22.826 117.612 22.4545V25.4433C116.911 25.7895 116.176 26.0428 115.408 26.2032C114.648 26.3636 113.724 26.4438 112.634 26.4438C111.216 26.4438 109.958 26.1821 108.86 25.6586C107.771 25.1351 106.914 24.3373 106.289 23.265C105.673 22.1927 105.365 20.8418 105.365 19.2123C105.365 17.5575 105.644 16.1813 106.201 15.0837C106.766 13.9776 107.552 13.1502 108.556 12.6014C109.561 12.0441 110.731 11.7655 112.065 11.7655ZM112.09 14.5137C111.338 14.5137 110.714 14.7544 110.215 15.2356C109.726 15.7169 109.443 16.4725 109.367 17.5026H114.787C114.779 16.9285 114.673 16.4177 114.471 15.9702C114.277 15.5227 113.981 15.1681 113.584 14.9063C113.196 14.6446 112.698 14.5137 112.09 14.5137Z" fill="black"/>
<path d="M131.787 11.7655C131.982 11.7655 132.205 11.7782 132.459 11.8035C132.72 11.8204 132.931 11.8457 133.092 11.8795L132.801 15.5016C132.674 15.4594 132.492 15.4298 132.256 15.4129C132.028 15.3876 131.83 15.3749 131.661 15.3749C131.163 15.3749 130.677 15.4383 130.204 15.5649C129.74 15.6916 129.322 15.8984 128.951 16.1855C128.579 16.4641 128.284 16.8356 128.064 17.3C127.853 17.7559 127.747 18.3174 127.747 18.9844V26.1905H123.885V12.0315H126.81L127.38 14.4124H127.57C127.849 13.9312 128.195 13.4921 128.609 13.0953C129.031 12.69 129.508 12.3692 130.04 12.1328C130.58 11.8879 131.163 11.7655 131.787 11.7655Z" fill="black"/>
<path d="M0 10.0867C0 4.51596 4.51596 0 10.0867 0H36.0238C41.5945 0 46.1105 4.51596 46.1105 10.0867V36.0238C46.1105 41.5945 41.5945 46.1105 36.0238 46.1105H10.0867C4.51596 46.1105 0 41.5945 0 36.0238V10.0867Z" fill="#3F51B5"/>
<path fill-rule="evenodd" clip-rule="evenodd" d="M28.0825 30.4838H36.4369V15.4218H35.058V27.5338C35.058 27.8396 34.7974 28.0874 34.4748 28.0874C31.348 28.0874 28.893 29.2351 27.0877 30.5785C27.4089 30.5176 27.7406 30.4838 28.0825 30.4838ZM28.6277 28.3002L28.6234 28.3012L28.6211 28.3032L28.6277 28.3002ZM35.058 13.7617H37.3113C37.7944 13.7617 38.1852 14.1332 38.1852 14.5911V31.314C38.1852 31.7719 37.7944 32.1443 37.3113 32.1443H28.0825C25.5823 32.1443 23.5278 34.9233 23.4919 34.9718L23.4916 34.9722C23.4895 34.9749 23.4864 34.9771 23.4843 34.9799C23.448 35.029 23.4059 35.074 23.3593 35.1149L23.3554 35.1178C23.3468 35.1242 23.3386 35.1304 23.3304 35.1372C23.2854 35.1738 23.2361 35.2059 23.1831 35.2336C23.1793 35.2352 23.1758 35.237 23.172 35.2391L23.1717 35.2393C23.1271 35.2616 23.0787 35.2813 23.0291 35.2961C23.0203 35.2987 23.0117 35.3001 23.003 35.3016C22.9991 35.3023 22.9952 35.303 22.9912 35.3038C22.9817 35.3066 22.9719 35.3079 22.9625 35.31C22.8989 35.3241 22.8343 35.3325 22.7706 35.3325C22.7677 35.3325 22.7652 35.332 22.7628 35.3316C22.7615 35.3314 22.7601 35.3312 22.7588 35.3312C22.7025 35.3302 22.6465 35.3232 22.591 35.3121C22.5844 35.3106 22.5777 35.3093 22.5711 35.308C22.561 35.306 22.5509 35.3039 22.5406 35.3013C22.5312 35.2989 22.5212 35.2973 22.5115 35.2945C22.4635 35.2804 22.4183 35.2625 22.3753 35.242C22.3697 35.2392 22.3643 35.236 22.3591 35.2328C22.3534 35.2293 22.3479 35.2258 22.3421 35.2232C22.2978 35.1991 22.2571 35.1722 22.2186 35.1422C22.2134 35.138 22.2082 35.1341 22.203 35.1301C22.1946 35.1238 22.1863 35.1175 22.1786 35.1104C22.1341 35.0711 22.0936 35.0283 22.0579 34.981C22.0569 34.9794 22.0555 34.9781 22.054 34.9768C22.0524 34.9754 22.0508 34.974 22.0497 34.9722C22.02 34.9321 19.9631 32.1443 17.4592 32.1443H8.23083C7.74775 32.1443 7.35608 31.7719 7.35608 31.314V14.5911C7.35608 14.1332 7.74775 13.7617 8.23083 13.7617H17.5215C20.1181 13.7617 21.8535 15.2422 22.7706 16.314C22.8864 16.1791 23.0164 16.0375 23.1579 15.8934C23.9076 14.7805 25.1608 13.3275 27.0781 12.1743C27.0825 12.1717 27.087 12.1691 27.0915 12.1666C27.096 12.164 27.1005 12.1615 27.1049 12.1589C28.3479 11.4154 29.8736 10.8048 31.7222 10.4906L31.7623 10.476L31.775 10.4813C32.6101 10.3425 33.5031 10.2575 34.4748 10.2575C34.7974 10.2575 35.058 10.5053 35.058 10.8111V13.7617ZM12.277 20.1525C13.0336 19.4129 14.0599 18.9974 15.1299 18.9974C16.2 18.9974 17.2262 19.4129 17.9829 20.1525C18.7395 20.8921 19.1646 21.8952 19.1646 22.9411H17.6516C17.3841 22.9411 17.1275 23.045 16.9384 23.2299C16.7492 23.4147 16.6429 23.6655 16.6429 23.927V26.3918C16.6429 26.6533 16.7492 26.904 16.9384 27.0889C17.1275 27.2738 17.3841 27.3777 17.6516 27.3777H19.1646C19.4321 27.3777 19.6887 27.2738 19.8778 27.0889C20.067 26.904 20.1733 26.6533 20.1733 26.3918V22.9411C20.1733 20.2185 17.9154 18.0115 15.1299 18.0115C12.3445 18.0115 10.0866 20.2185 10.0866 22.9411V26.3918C10.0866 26.6533 10.1929 26.904 10.382 27.0889C10.5712 27.2738 10.8278 27.3777 11.0953 27.3777H12.6083C12.8758 27.3777 13.1323 27.2738 13.3215 27.0889C13.5107 26.904 13.6169 26.6533 13.6169 26.3918V23.927C13.6169 23.6655 13.5107 23.4147 13.3215 23.2299C13.1323 23.045 12.8758 22.9411 12.6083 22.9411H11.0953C11.0953 21.8952 11.5204 20.8921 12.277 20.1525ZM11.0953 26.3918V23.927H12.6083V26.3918H11.0953ZM17.6516 26.3918V23.927H19.1646V26.3918H17.6516Z" fill="white"/>
</svg>
